solid AssimpScene
 facet normal 0.0854564 0 -0.996342
  outer loop
  vertex 0.0759929 0.0157922 -0.0330101
  vertex 0.0759929 -0.0157917 -0.0330101
  vertex 0.00507754 2.16463e-07 -0.0390925
  endloop
 endfacet

 facet normal 0.572174 -0.594072 -0.565417
  outer loop
  vertex 0.0719929 -0.0224995 -0.0300101
  vertex 0.0759929 -0.0157917 -0.0330101
  vertex 0.0759929 -0.0233088 -0.025112
  endloop
 endfacet

 facet normal 1.81563e-07 -0.999112 0.0421233
  outer loop
  vertex 0.0554931 -0.0328822 0.00276703
  vertex 0.0554931 -0.0329993 -1.03712e-05
  vertex 0.0759929 -0.0328822 0.00276703
  endloop
 endfacet

 facet normal 0.0555703 -1.17767e-07 0.998455
  outer loop
  vertex 0.0759929 0.0157922 0.0329891
  vertex 0.0364933 2.29946e-07 0.0351875
  vertex 0.0759929 -0.0157917 0.0329891
  endloop
 endfacet

 facet normal 0.413177 -0.78201 -0.466631
  outer loop
  vertex 0.0759929 -0.0233088 -0.025112
  vertex 0.0759929 -0.029492 -0.0147499
  vertex 0.0719929 -0.0224995 -0.0300101
  endloop
 endfacet

 facet normal -0.00233831 -0.0987756 -0.995107
  outer loop
  vertex -0.00530958 2.13079e-07 -0.0390681
  vertex 0.00507754 2.16463e-07 -0.0390925
  vertex 0.000600934 -0.0309994 -0.0360049
  endloop
 endfacet

 facet normal 0.572174 -0.594072 0.565417
  outer loop
  vertex 0.0719929 -0.0224995 0.0299891
  vertex 0.0759929 -0.0233088 0.025091
  vertex 0.0759929 -0.0157917 0.0329891
  endloop
 endfacet

 facet normal 0.413177 -0.782011 0.466631
  outer loop
  vertex 0.0759929 -0.029492 0.0147289
  vertex 0.0759929 -0.0233088 0.025091
  vertex 0.0719929 -0.0224995 0.0299891
  endloop
 endfacet

 facet normal 0.182731 -0.874783 0.448737
  outer loop
  vertex 0.0759929 -0.029492 0.0147289
  vertex 0.0719929 -0.0224995 0.0299891
  vertex 0.0364933 -0.0309994 0.0278749
  endloop
 endfacet

 facet normal 0.249737 -0.494686 0.832416
  outer loop
  vertex 0.0719929 -0.017811 0.0329891
  vertex 0.0719929 -0.0202048 0.0315665
  vertex 0.0759929 -0.0157917 0.0329891
  endloop
 endfacet

 facet normal -0.0218504 0.99976 0.00141618
  outer loop
  vertex -0.0357545 0.0309998 0.00403261
  vertex 0.0554931 0.0329998 -1.06096e-05
  vertex -0.0360054 0.0309998 0.000163601
  endloop
 endfacet

 facet normal -0.0213186 -0.99974 0.0081251
  outer loop
  vertex 0.0554931 -0.0329993 -1.03712e-05
  vertex -0.0320963 -0.0309994 0.0162531
  vertex -0.0346336 -0.0309994 0.00959553
  endloop
 endfacet

 facet normal -0.00821004 -0.999079 0.0421219
  outer loop
  vertex 0.0554931 -0.0328822 0.00276703
  vertex -0.00840548 -0.0309994 0.0349724
  vertex 0.0554931 -0.0329993 -1.03712e-05
  endloop
 endfacet

 facet normal 0.0516988 -0.00970606 0.998616
  outer loop
  vertex 0.0364933 2.29946e-07 0.0351875
  vertex 0.00228283 -0.0015391 0.0369436
  vertex 0.0759929 -0.0157917 0.0329891
  endloop
 endfacet

 facet normal 0.572172 0.594074 0.565416
  outer loop
  vertex 0.0719929 0.0225 0.0299891
  vertex 0.0759929 0.0157922 0.0329891
  vertex 0.0759929 0.0233093 0.025091
  endloop
 endfacet

 facet normal 0.413177 0.782011 0.466631
  outer loop
  vertex 0.0759929 0.0233093 0.025091
  vertex 0.0759929 0.0294925 0.0147289
  vertex 0.0719929 0.0225 0.0299891
  endloop
 endfacet

 facet normal 3.23729e-07 -0.999113 0.0421222
  outer loop
  vertex 0.0554931 -0.0329993 -1.03712e-05
  vertex 0.0759929 -0.0329993 -1.04904e-05
  vertex 0.0759929 -0.0328822 0.00276703
  endloop
 endfacet

 facet normal -0.00234841 0.0349894 -0.999385
  outer loop
  vertex -0.00530958 2.13079e-07 -0.0390681
  vertex -0.00316537 0.0309998 -0.0379878
  vertex 0.00507754 2.16463e-07 -0.0390925
  endloop
 endfacet

 facet normal 0.0771073 0.0374832 -0.996318
  outer loop
  vertex 0.00507754 2.16463e-07 -0.0390925
  vertex 0.003995 0.0309998 -0.03801
  vertex 0.0759929 0.0157922 -0.0330101
  endloop
 endfacet

 facet normal 0.0146489 0.999875 -0.00602267
  outer loop
  vertex 0.0623431 0.032912 0.00207253
  vertex 0.0623431 0.0328827 -0.00278801
  vertex 0.0554931 0.0329998 -1.06096e-05
  endloop
 endfacet

 facet normal -0.00261636 0.998817 -0.0485596
  outer loop
  vertex 0.0554931 0.0329998 -1.06096e-05
  vertex 0.0623431 0.0328827 -0.00278801
  vertex -0.00316537 0.0309998 -0.0379878
  endloop
 endfacet

 facet normal -0.55046 -0.0335684 -0.834186
  outer loop
  vertex -0.0202238 -0.0309994 -0.0297681
  vertex -0.0218932 2.08076e-07 -0.029914
  vertex -0.0185164 2.09079e-07 -0.0321422
  endloop
 endfacet

 facet normal -0.161777 -0.112744 -0.980366
  outer loop
  vertex -0.00530958 2.13079e-07 -0.0390681
  vertex -0.00328927 -0.0309994 -0.0358365
  vertex -0.00840805 -0.0309994 -0.0349918
  endloop
 endfacet

 facet normal 0.0612964 -0.106964 -0.992372
  outer loop
  vertex 0.0759929 -0.0157917 -0.0330101
  vertex 0.00319469 -0.0309994 -0.0358675
  vertex 0.00507754 2.16463e-07 -0.0390925
  endloop
 endfacet

 facet normal 0.0526169 -0.106494 -0.99292
  outer loop
  vertex 0.000600934 -0.0309994 -0.0360049
  vertex 0.00507754 2.16463e-07 -0.0390925
  vertex 0.00319469 -0.0309994 -0.0358675
  endloop
 endfacet

 facet normal 0.00340819 -0.997925 -0.0643016
  outer loop
  vertex 0.000600934 -0.0309994 -0.0360049
  vertex 0.00319469 -0.0309994 -0.0358675
  vertex 0.0759929 -0.0328822 -0.00278801
  endloop
 endfacet

 facet normal 0.0313337 -0.991828 0.123672
  outer loop
  vertex 0.0364933 -0.0309994 0.0278749
  vertex 0.00831881 -0.0309994 0.0350132
  vertex 0.0759929 -0.0328822 0.00276703
  endloop
 endfacet

 facet normal 0.152171 -0.784926 0.600613
  outer loop
  vertex 0.0364933 -0.0309994 0.0278749
  vertex 0.0719929 -0.0224995 0.0299891
  vertex 0.00831881 -0.0309994 0.0350132
  endloop
 endfacet

 facet normal 0.31502 -0.537642 0.782115
  outer loop
  vertex 0.0719929 -0.0202048 0.0315665
  vertex 0.0719929 -0.0224995 0.0299891
  vertex 0.0759929 -0.0157917 0.0329891
  endloop
 endfacet

 facet normal -0.863872 0.0728417 0.498416
  outer loop
  vertex -0.0379582 2.04773e-07 0.0142778
  vertex -0.0377357 2.04862e-07 0.0146634
  vertex -0.037506 0.0122376 0.0132732
  endloop
 endfacet

 facet normal -0.777973 0.0853223 0.622477
  outer loop
  vertex -0.0278 0.0309998 0.022832
  vertex -0.037506 0.0122376 0.0132732
  vertex -0.0377357 2.04862e-07 0.0146634
  endloop
 endfacet

 facet normal -0.989779 0.127344 0.0641938
  outer loop
  vertex -0.0360054 0.0309998 0.000163601
  vertex -0.0375458 0.0126681 0.0127771
  vertex -0.0357545 0.0309998 0.00403261
  endloop
 endfacet

 facet normal -0.0217332 0.999756 0.00405875
  outer loop
  vertex 0.0554931 0.0329998 -1.06096e-05
  vertex -0.0357545 0.0309998 0.00403261
  vertex -0.0348041 0.0309998 0.00912124
  endloop
 endfacet

 facet normal -0.966839 0.180611 0.180561
  outer loop
  vertex -0.0348041 0.0309998 0.00912124
  vertex -0.0357545 0.0309998 0.00403261
  vertex -0.0375458 0.0126681 0.0127771
  endloop
 endfacet

 facet normal -0.0145047 0.999446 0.0299405
  outer loop
  vertex -0.0179469 0.0309998 0.0311731
  vertex -0.0134303 0.0309997 0.0333653
  vertex 0.0554931 0.0329998 -1.06096e-05
  endloop
 endfacet

 facet normal -0.0167161 0.999554 0.0247395
  outer loop
  vertex -0.0179469 0.0309998 0.0311731
  vertex 0.0554931 0.0329998 -1.06096e-05
  vertex -0.0222516 0.0309998 0.0282661
  endloop
 endfacet

 facet normal -0.302946 0.0324004 0.952457
  outer loop
  vertex -0.0139842 2.13457e-07 0.0342436
  vertex -0.00814458 0.0309996 0.0350465
  vertex -0.0134303 0.0309997 0.0333653
  endloop
 endfacet

 facet normal -0.0114851 0.99928 0.0361663
  outer loop
  vertex 0.0554931 0.0329998 -1.06096e-05
  vertex -0.0134303 0.0309997 0.0333653
  vertex -0.00814458 0.0309996 0.0350465
  endloop
 endfacet

 facet normal -0.0216931 -0.999754 0.00461471
  outer loop
  vertex 0.0554931 -0.0329993 -1.03712e-05
  vertex -0.0346336 -0.0309994 0.00959553
  vertex -0.0357847 -0.0309994 0.00418202
  endloop
 endfacet

 facet normal -0.913783 -0.20909 0.348255
  outer loop
  vertex -0.0346336 -0.0309994 0.00959553
  vertex -0.0320963 -0.0309994 0.0162531
  vertex -0.037493 -0.0125802 0.0131514
  endloop
 endfacet

 facet normal -0.0114909 -0.999281 0.0361406
  outer loop
  vertex -0.00840548 -0.0309994 0.0349724
  vertex -0.0133521 -0.0309994 0.0333986
  vertex 0.0554931 -0.0329993 -1.03712e-05
  endloop
 endfacet

 facet normal -0.00731777 -0.99901 0.0438882
  outer loop
  vertex -0.00337847 -0.0309992 0.0358132
  vertex -0.00840548 -0.0309994 0.0349724
  vertex 0.0554931 -0.0328822 0.00276703
  endloop
 endfacet

 facet normal -0.0167373 -0.999555 0.0246906
  outer loop
  vertex 0.0554931 -0.0329993 -1.03712e-05
  vertex -0.0179563 -0.0309993 0.0311677
  vertex -0.0223916 -0.0309993 0.0281604
  endloop
 endfacet

 facet normal -0.014515 -0.999447 0.0299189
  outer loop
  vertex -0.0179563 -0.0309993 0.0311677
  vertex 0.0554931 -0.0329993 -1.03712e-05
  vertex -0.0133521 -0.0309994 0.0333986
  endloop
 endfacet

 facet normal -0.0204481 -0.999709 0.0128095
  outer loop
  vertex -0.0286208 -0.0309991 0.0218225
  vertex -0.0320963 -0.0309994 0.0162531
  vertex 0.0554931 -0.0329993 -1.03712e-05
  endloop
 endfacet

 facet normal -0.018163 -0.99962 0.0207534
  outer loop
  vertex -0.0252461 -0.0309994 0.0256588
  vertex 0.0554931 -0.0329993 -1.03712e-05
  vertex -0.0223916 -0.0309993 0.0281604
  endloop
 endfacet

 facet normal -0.658689 -0.0348428 0.751608
  outer loop
  vertex -0.0252461 -0.0309994 0.0256588
  vertex -0.0223916 -0.0309993 0.0281604
  vertex -0.0260048 2.09199e-07 0.026431
  endloop
 endfacet

 facet normal -0.0193681 -0.999668 0.0169666
  outer loop
  vertex -0.0252461 -0.0309994 0.0256588
  vertex -0.0286208 -0.0309991 0.0218225
  vertex 0.0554931 -0.0329993 -1.03712e-05
  endloop
 endfacet

 facet normal 0.0507157 0.0121679 0.998639
  outer loop
  vertex 0.0759929 0.0157922 0.0329891
  vertex 0.00228283 -0.0015391 0.0369436
  vertex 0.0364933 2.29946e-07 0.0351875
  endloop
 endfacet

 facet normal 0.0765376 0.186386 0.979491
  outer loop
  vertex 0.0759929 0.0157922 0.0329891
  vertex 0.00451444 0.0309998 0.0356806
  vertex 0.000640988 0.0309998 0.0359833
  endloop
 endfacet

 facet normal 0.0644165 0.127602 0.989731
  outer loop
  vertex 0.0719929 0.0178115 0.0329891
  vertex 0.00451444 0.0309998 0.0356806
  vertex 0.0759929 0.0157922 0.0329891
  endloop
 endfacet

 facet normal 0.132946 0.506339 0.852025
  outer loop
  vertex 0.0719929 0.0178115 0.0329891
  vertex 0.0719929 0.0202053 0.0315665
  vertex 0.00451444 0.0309998 0.0356806
  endloop
 endfacet

 facet normal 0.249732 0.494687 0.832417
  outer loop
  vertex 0.0719929 0.0202053 0.0315665
  vertex 0.0719929 0.0178115 0.0329891
  vertex 0.0759929 0.0157922 0.0329891
  endloop
 endfacet

 facet normal 0.14084 0.581643 0.801159
  outer loop
  vertex 0.0719929 0.0225 0.0299891
  vertex 0.00834104 0.0309998 0.0350079
  vertex 0.00451444 0.0309998 0.0356806
  endloop
 endfacet

 facet normal -0.00425826 0.998931 -0.0460296
  outer loop
  vertex 0.0554931 0.0329998 -1.06096e-05
  vertex -0.00316537 0.0309998 -0.0379878
  vertex -0.00482786 0.0309998 -0.037834
  endloop
 endfacet

 facet normal -0.25532 0.0424208 -0.965926
  outer loop
  vertex -0.00482786 0.0309998 -0.037834
  vertex -0.00530958 2.13079e-07 -0.0390681
  vertex -0.00594717 2.12879e-07 -0.0388995
  endloop
 endfacet

 facet normal -0.09204 0.0410373 -0.994909
  outer loop
  vertex -0.00530958 2.13079e-07 -0.0390681
  vertex -0.00482786 0.0309998 -0.037834
  vertex -0.00316537 0.0309998 -0.0379878
  endloop
 endfacet

 facet normal -0.647437 -0.0309429 -0.761491
  outer loop
  vertex -0.0233255 -0.0309994 -0.0274365
  vertex -0.0259998 2.0689e-07 -0.0264225
  vertex -0.0218932 2.08076e-07 -0.029914
  endloop
 endfacet

 facet normal 0.576985 0.591625 -0.563088
  outer loop
  vertex 0.0719858 0.0224216 -0.0301506
  vertex 0.0759929 0.0233093 -0.025112
  vertex 0.0759929 0.0157922 -0.0330101
  endloop
 endfacet

 facet normal 0.413458 0.781901 -0.466565
  outer loop
  vertex 0.0759929 0.0294925 -0.0147499
  vertex 0.0759929 0.0233093 -0.025112
  vertex 0.0719858 0.0224216 -0.0301506
  endloop
 endfacet

 facet normal -0.00310047 0.0347896 -0.99939
  outer loop
  vertex 0.003995 0.0309998 -0.03801
  vertex 0.00507754 2.16463e-07 -0.0390925
  vertex -0.00316537 0.0309998 -0.0379878
  endloop
 endfacet

 facet normal 0.182846 0.874568 -0.449109
  outer loop
  vertex 0.0759929 0.0294925 -0.0147499
  vertex 0.0719858 0.0224216 -0.0301506
  vertex 0.0364933 0.0309998 -0.0278959
  endloop
 endfacet

 facet normal -0.741266 -0.0622132 -0.668322
  outer loop
  vertex -0.0252461 -0.0309994 -0.0256798
  vertex -0.0278535 -0.0309994 -0.0227878
  vertex -0.0380055 -1.82257e-05 -0.0144118
  endloop
 endfacet

 facet normal -0.0192455 -0.999664 -0.0173517
  outer loop
  vertex 0.0554931 -0.0329993 -1.03712e-05
  vertex -0.0278535 -0.0309994 -0.0227878
  vertex -0.0252461 -0.0309994 -0.0256798
  endloop
 endfacet

 facet normal -0.0183738 -0.999629 -0.020091
  outer loop
  vertex -0.0252461 -0.0309994 -0.0256798
  vertex -0.0233255 -0.0309994 -0.0274365
  vertex 0.0554931 -0.0329993 -1.03712e-05
  endloop
 endfacet

 facet normal -0.674533 -0.0340665 -0.737458
  outer loop
  vertex -0.0252461 -0.0309994 -0.0256798
  vertex -0.0259998 2.0689e-07 -0.0264225
  vertex -0.0233255 -0.0309994 -0.0274365
  endloop
 endfacet

 facet normal -0.706814 -0.0341114 -0.706576
  outer loop
  vertex -0.0380055 -1.82257e-05 -0.0144118
  vertex -0.0259998 2.0689e-07 -0.0264225
  vertex -0.0252461 -0.0309994 -0.0256798
  endloop
 endfacet

 facet normal -0.706873 0.0338645 -0.70653
  outer loop
  vertex -0.0253821 0.0309996 -0.0255546
  vertex -0.0259998 2.0689e-07 -0.0264225
  vertex -0.0380055 -1.82257e-05 -0.0144118
  endloop
 endfacet

 facet normal -0.0160695 -0.999525 -0.0262881
  outer loop
  vertex -0.0202238 -0.0309994 -0.0297681
  vertex -0.0169011 -0.0309994 -0.0318003
  vertex 0.0554931 -0.0329993 -1.03712e-05
  endloop
 endfacet

 facet normal -0.0140737 -0.999426 -0.0308268
  outer loop
  vertex -0.0133521 -0.0309994 -0.0334196
  vertex 0.0554931 -0.0329993 -1.03712e-05
  vertex -0.0169011 -0.0309994 -0.0318003
  endloop
 endfacet

 facet normal -0.414303 -0.0615561 -0.908055
  outer loop
  vertex -0.0133521 -0.0309994 -0.0334196
  vertex -0.0169011 -0.0309994 -0.0318003
  vertex -0.00594717 2.12879e-07 -0.0388995
  endloop
 endfacet

 facet normal -0.521419 -0.0365717 -0.852516
  outer loop
  vertex -0.0185164 2.09079e-07 -0.0321422
  vertex -0.0169011 -0.0309994 -0.0318003
  vertex -0.0202238 -0.0309994 -0.0297681
  endloop
 endfacet

 facet normal -0.0430133 -0.106362 -0.993397
  outer loop
  vertex 0.000600934 -0.0309994 -0.0360049
  vertex -0.00328927 -0.0309994 -0.0358365
  vertex -0.00530958 2.13079e-07 -0.0390681
  endloop
 endfacet

 facet normal 0.0662308 -0.131192 -0.989142
  outer loop
  vertex 0.0759929 -0.0157917 -0.0330101
  vertex 0.0719929 -0.017811 -0.0330101
  vertex 0.00319469 -0.0309994 -0.0358675
  endloop
 endfacet

 facet normal 0.182731 -0.874783 -0.448737
  outer loop
  vertex 0.0759929 -0.029492 -0.0147499
  vertex 0.0364933 -0.0309994 -0.0278959
  vertex 0.0719929 -0.0224995 -0.0300101
  endloop
 endfacet

 facet normal 0.0506423 -0.986823 0.153673
  outer loop
  vertex 0.0364933 -0.0309994 0.0278749
  vertex 0.0759929 -0.0328822 0.00276703
  vertex 0.0759929 -0.0322411 0.00688395
  endloop
 endfacet

 facet normal 0.064457 -0.127678 0.989719
  outer loop
  vertex 0.0719929 -0.017811 0.0329891
  vertex 0.0759929 -0.0157917 0.0329891
  vertex 0.00448324 -0.0309994 0.0356844
  endloop
 endfacet

 facet normal -0.994992 -0.0987844 -0.0152524
  outer loop
  vertex -0.0357717 -0.0309994 -0.00389731
  vertex -0.0375156 -0.0140345 -1.04904e-05
  vertex -0.0374699 -0.0124619 -0.013177
  endloop
 endfacet

 facet normal -0.999 -0.043864 -0.00870666
  outer loop
  vertex -0.0380055 -1.82257e-05 -0.0144118
  vertex -0.0374699 -0.0124619 -0.013177
  vertex -0.0375156 -0.0140345 -1.04904e-05
  endloop
 endfacet

 facet normal -0.0211494 -0.999733 -0.00931757
  outer loop
  vertex -0.0342641 -0.0309994 -0.0108607
  vertex -0.0311336 -0.0309994 -0.0179664
  vertex 0.0554931 -0.0329993 -1.03712e-05
  endloop
 endfacet

 facet normal -0.895837 -0.204236 -0.394669
  outer loop
  vertex -0.0374699 -0.0124619 -0.013177
  vertex -0.0311336 -0.0309994 -0.0179664
  vertex -0.0342641 -0.0309994 -0.0108607
  endloop
 endfacet

 facet normal -0.831994 0.159723 0.531295
  outer loop
  vertex -0.0278 0.0309998 0.022832
  vertex -0.031955 0.0309998 0.0163254
  vertex -0.037506 0.0122376 0.0132732
  endloop
 endfacet

 facet normal -0.707778 -0.0348973 0.705572
  outer loop
  vertex -0.0260048 2.09199e-07 0.026431
  vertex -0.0377357 2.04862e-07 0.0146634
  vertex -0.0252461 -0.0309994 0.0256588
  endloop
 endfacet

 facet normal -0.749098 -0.068081 0.658951
  outer loop
  vertex -0.0377357 2.04862e-07 0.0146634
  vertex -0.0286208 -0.0309991 0.0218225
  vertex -0.0252461 -0.0309994 0.0256588
  endloop
 endfacet

 facet normal -0.0212917 0.999738 0.00842035
  outer loop
  vertex -0.031955 0.0309998 0.0163254
  vertex 0.0554931 0.0329998 -1.06096e-05
  vertex -0.0348041 0.0309998 0.00912124
  endloop
 endfacet

 facet normal -0.996332 0.085528 0.00262144
  outer loop
  vertex -0.0375458 0.0126681 0.0127771
  vertex -0.0360054 0.0309998 0.000163601
  vertex -0.0375325 0.0134263 -0.00690424
  endloop
 endfacet

 facet normal -0.999463 0.0327234 0.00162794
  outer loop
  vertex -0.0379582 2.04773e-07 0.0142778
  vertex -0.0375458 0.0126681 0.0127771
  vertex -0.0380055 -1.82257e-05 -0.0144118
  endloop
 endfacet

 facet normal -0.559264 0.0373495 0.828148
  outer loop
  vertex -0.0179469 0.0309998 0.0311731
  vertex -0.0222516 0.0309998 0.0282661
  vertex -0.0200603 2.11342e-07 0.031144
  endloop
 endfacet

 facet normal -0.560803 -0.0374291 0.827103
  outer loop
  vertex -0.0179563 -0.0309993 0.0311677
  vertex -0.0200603 2.11342e-07 0.031144
  vertex -0.0223916 -0.0309993 0.0281604
  endloop
 endfacet

 facet normal -0.0192271 0.999663 0.0174177
  outer loop
  vertex 0.0554931 0.0329998 -1.06096e-05
  vertex -0.0278 0.0309998 0.022832
  vertex -0.0251726 0.0309998 0.0257308
  endloop
 endfacet

 facet normal -0.0181182 0.999618 0.0208892
  outer loop
  vertex -0.0222516 0.0309998 0.0282661
  vertex 0.0554931 0.0329998 -1.06096e-05
  vertex -0.0251726 0.0309998 0.0257308
  endloop
 endfacet

 facet normal -0.739592 0.0604087 0.670339
  outer loop
  vertex -0.0377357 2.04862e-07 0.0146634
  vertex -0.0251726 0.0309998 0.0257308
  vertex -0.0278 0.0309998 0.022832
  endloop
 endfacet

 facet normal -0.65508 0.0346329 0.754765
  outer loop
  vertex -0.0222516 0.0309998 0.0282661
  vertex -0.0251726 0.0309998 0.0257308
  vertex -0.0260048 2.09199e-07 0.026431
  endloop
 endfacet

 facet normal -0.707778 0.0349364 0.705571
  outer loop
  vertex -0.0251726 0.0309998 0.0257308
  vertex -0.0377357 2.04862e-07 0.0146634
  vertex -0.0260048 2.09199e-07 0.026431
  endloop
 endfacet

 facet normal -0.0218554 0.99976 -0.00120871
  outer loop
  vertex 0.0554931 0.0329998 -1.06096e-05
  vertex -0.0357902 0.0309998 -0.00372389
  vertex -0.0360054 0.0309998 0.000163601
  endloop
 endfacet

 facet normal -0.992593 0.108353 -0.054939
  outer loop
  vertex -0.0375325 0.0134263 -0.00690424
  vertex -0.0360054 0.0309998 0.000163601
  vertex -0.0357902 0.0309998 -0.00372389
  endloop
 endfacet

 facet normal -0.999395 0.0347856 0.000664569
  outer loop
  vertex -0.0375458 0.0126681 0.0127771
  vertex -0.0375325 0.0134263 -0.00690424
  vertex -0.0380055 -1.82257e-05 -0.0144118
  endloop
 endfacet

 facet normal -0.998609 0.0476835 -0.0224826
  outer loop
  vertex -0.0380055 -1.82257e-05 -0.0144118
  vertex -0.0375325 0.0134263 -0.00690424
  vertex -0.0374352 0.0124183 -0.0133644
  endloop
 endfacet

 facet normal -0.000609999 0.998475 0.0551927
  outer loop
  vertex 0.0623431 0.032912 0.00207253
  vertex -0.00232518 0.0309989 0.035967
  vertex 0.000640988 0.0309998 0.0359833
  endloop
 endfacet

 facet normal -0.00291635 0.998659 0.0516854
  outer loop
  vertex 0.0623431 0.032912 0.00207253
  vertex 0.0554931 0.0329998 -1.06096e-05
  vertex -0.00814458 0.0309996 0.0350465
  endloop
 endfacet

 facet normal -0.00676083 0.999031 0.0434887
  outer loop
  vertex -0.00232518 0.0309989 0.035967
  vertex 0.0623431 0.032912 0.00207253
  vertex -0.00814458 0.0309996 0.0350465
  endloop
 endfacet

 facet normal -0.999544 -0.0297939 0.00500581
  outer loop
  vertex -0.0375156 -0.0140345 -1.04904e-05
  vertex -0.037493 -0.0125802 0.0131514
  vertex -0.0380055 -1.82257e-05 -0.0144118
  endloop
 endfacet

 facet normal 0.315014 0.537643 0.782116
  outer loop
  vertex 0.0719929 0.0225 0.0299891
  vertex 0.0719929 0.0202053 0.0315665
  vertex 0.0759929 0.0157922 0.0329891
  endloop
 endfacet

 facet normal 0.139486 0.560947 0.816016
  outer loop
  vertex 0.00451444 0.0309998 0.0356806
  vertex 0.0719929 0.0202053 0.0315665
  vertex 0.0719929 0.0225 0.0299891
  endloop
 endfacet

 facet normal 0.257286 0.509639 -0.821019
  outer loop
  vertex 0.0719929 0.0178115 -0.0330101
  vertex 0.0719858 0.0224216 -0.0301506
  vertex 0.0759929 0.0157922 -0.0330101
  endloop
 endfacet

 facet normal -0.0173379 -0.999584 -0.0230645
  outer loop
  vertex -0.0233255 -0.0309994 -0.0274365
  vertex -0.0202238 -0.0309994 -0.0297681
  vertex 0.0554931 -0.0329993 -1.03712e-05
  endloop
 endfacet

 facet normal -0.0114916 -0.999281 -0.0361389
  outer loop
  vertex -0.0133521 -0.0309994 -0.0334196
  vertex -0.00840805 -0.0309994 -0.0349918
  vertex 0.0554931 -0.0329993 -1.03712e-05
  endloop
 endfacet

 facet normal -0.254021 -0.109205 -0.961014
  outer loop
  vertex -0.00530958 2.13079e-07 -0.0390681
  vertex -0.0133521 -0.0309994 -0.0334196
  vertex -0.00594717 2.12879e-07 -0.0388995
  endloop
 endfacet

 facet normal -0.301683 -0.0945962 -0.948704
  outer loop
  vertex -0.00840805 -0.0309994 -0.0349918
  vertex -0.0133521 -0.0309994 -0.0334196
  vertex -0.00530958 2.13079e-07 -0.0390681
  endloop
 endfacet

 facet normal -0.473237 -0.0343671 -0.880265
  outer loop
  vertex -0.00594717 2.12879e-07 -0.0388995
  vertex -0.0169011 -0.0309994 -0.0318003
  vertex -0.0185164 2.09079e-07 -0.0321422
  endloop
 endfacet

 facet normal -0.55048 0.032471 -0.834217
  outer loop
  vertex -0.0218932 2.08076e-07 -0.029914
  vertex -0.0196239 0.0309996 -0.0302048
  vertex -0.0185164 2.09079e-07 -0.0321422
  endloop
 endfacet

 facet normal -0.647411 0.0321968 -0.761461
  outer loop
  vertex -0.0259998 2.0689e-07 -0.0264225
  vertex -0.0224964 0.0309998 -0.0280904
  vertex -0.0218932 2.08076e-07 -0.029914
  endloop
 endfacet

 facet normal -0.473236 0.0343869 -0.880264
  outer loop
  vertex -0.0185164 2.09079e-07 -0.0321422
  vertex -0.0171164 0.0309998 -0.0316839
  vertex -0.00594717 2.12879e-07 -0.0388995
  endloop
 endfacet

 facet normal -0.507745 0.0356573 -0.860769
  outer loop
  vertex -0.0196239 0.0309996 -0.0302048
  vertex -0.0171164 0.0309998 -0.0316839
  vertex -0.0185164 2.09079e-07 -0.0321422
  endloop
 endfacet

 facet normal -0.447061 0.0468469 -0.893276
  outer loop
  vertex -0.0171164 0.0309998 -0.0316839
  vertex -0.00482786 0.0309998 -0.037834
  vertex -0.00594717 2.12879e-07 -0.0388995
  endloop
 endfacet

 facet normal -0.0147093 0.99946 -0.0293901
  outer loop
  vertex -0.00482786 0.0309998 -0.037834
  vertex -0.0171164 0.0309998 -0.0316839
  vertex 0.0554931 0.0329998 -1.06096e-05
  endloop
 endfacet

 facet normal -0.015863 0.999516 -0.0267489
  outer loop
  vertex -0.0196239 0.0309996 -0.0302048
  vertex 0.0554931 0.0329998 -1.06096e-05
  vertex -0.0171164 0.0309998 -0.0316839
  endloop
 endfacet

 facet normal -0.00821297 -0.999079 -0.0421165
  outer loop
  vertex -0.00840805 -0.0309994 -0.0349918
  vertex 0.0554931 -0.0328823 -0.00278777
  vertex 0.0554931 -0.0329993 -1.03712e-05
  endloop
 endfacet

 facet normal -0.00726096 -0.999005 -0.0440012
  outer loop
  vertex -0.00328927 -0.0309994 -0.0358365
  vertex 0.0554931 -0.0328823 -0.00278777
  vertex -0.00840805 -0.0309994 -0.0349918
  endloop
 endfacet

 facet normal -0.00228682 -0.998601 -0.0528255
  outer loop
  vertex 0.0554931 -0.0328823 -0.00278777
  vertex -0.00328927 -0.0309994 -0.0358365
  vertex 0.000600934 -0.0309994 -0.0360049
  endloop
 endfacet

 facet normal 4.17931e-07 -0.999113 -0.0421201
  outer loop
  vertex 0.0759929 -0.0329993 -1.04904e-05
  vertex 0.0554931 -0.0328823 -0.00278777
  vertex 0.0759929 -0.0328822 -0.00278801
  endloop
 endfacet

 facet normal 3.18021e-07 -0.999113 -0.0421194
  outer loop
  vertex 0.0759929 -0.0329993 -1.04904e-05
  vertex 0.0554931 -0.0329993 -1.03712e-05
  vertex 0.0554931 -0.0328823 -0.00278777
  endloop
 endfacet

 facet normal 2.48963e-07 -0.998397 -0.0565934
  outer loop
  vertex 0.0759929 -0.0328822 -0.00278801
  vertex 0.0554931 -0.0328823 -0.00278777
  vertex 0.000600934 -0.0309994 -0.0360049
  endloop
 endfacet

 facet normal 0.249737 -0.494686 -0.832416
  outer loop
  vertex 0.0719929 -0.017811 -0.0330101
  vertex 0.0759929 -0.0157917 -0.0330101
  vertex 0.0719929 -0.0202048 -0.0315875
  endloop
 endfacet

 facet normal 0.152171 -0.784926 -0.600613
  outer loop
  vertex 0.0364933 -0.0309994 -0.0278959
  vertex 0.00831881 -0.0309994 -0.0350342
  vertex 0.0719929 -0.0224995 -0.0300101
  endloop
 endfacet

 facet normal 0.0313337 -0.991828 -0.123672
  outer loop
  vertex 0.0364933 -0.0309994 -0.0278959
  vertex 0.0759929 -0.0328822 -0.00278801
  vertex 0.00831881 -0.0309994 -0.0350342
  endloop
 endfacet

 facet normal 0.156692 -0.917487 -0.365602
  outer loop
  vertex 0.0364933 -0.0309994 -0.0278959
  vertex 0.0759929 -0.029492 -0.0147499
  vertex 0.0759929 -0.0315465 -0.00959411
  endloop
 endfacet

 facet normal 0.109154 -0.958842 0.262121
  outer loop
  vertex 0.0759929 -0.0322411 0.00688395
  vertex 0.0759929 -0.0311424 0.0109031
  vertex 0.0364933 -0.0309994 0.0278749
  endloop
 endfacet

 facet normal 0.164597 -0.905679 0.390708
  outer loop
  vertex 0.0759929 -0.0311424 0.0109031
  vertex 0.0759929 -0.029492 0.0147289
  vertex 0.0364933 -0.0309994 0.0278749
  endloop
 endfacet

 facet normal 0.00528938 -0.997633 0.0685549
  outer loop
  vertex 0.00448324 -0.0309994 0.0356844
  vertex 0.000600934 -0.0309994 0.0359839
  vertex 0.0759929 -0.0328822 0.00276703
  endloop
 endfacet

 facet normal 1.81433e-07 -0.998397 0.0565934
  outer loop
  vertex 0.0759929 -0.0328822 0.00276703
  vertex 0.000600934 -0.0309994 0.0359839
  vertex 0.0554931 -0.0328822 0.00276703
  endloop
 endfacet

 facet normal -0.0023018 -0.998602 0.0528009
  outer loop
  vertex 0.0554931 -0.0328822 0.00276703
  vertex 0.000600934 -0.0309994 0.0359839
  vertex -0.00337847 -0.0309992 0.0358132
  endloop
 endfacet

 facet normal 0.0467537 -0.0351892 0.998286
  outer loop
  vertex 0.00228283 -0.0015391 0.0369436
  vertex 0.000600934 -0.0309994 0.0359839
  vertex 0.0759929 -0.0157917 0.0329891
  endloop
 endfacet

 facet normal 0.0756367 -0.181898 0.980404
  outer loop
  vertex 0.00448324 -0.0309994 0.0356844
  vertex 0.0759929 -0.0157917 0.0329891
  vertex 0.000600934 -0.0309994 0.0359839
  endloop
 endfacet

 facet normal 0.0160784 -0.99564 0.0918789
  outer loop
  vertex 0.00831881 -0.0309994 0.0350132
  vertex 0.00448324 -0.0309994 0.0356844
  vertex 0.0759929 -0.0328822 0.00276703
  endloop
 endfacet

 facet normal 0.140614 -0.578416 0.803531
  outer loop
  vertex 0.00831881 -0.0309994 0.0350132
  vertex 0.0719929 -0.0224995 0.0299891
  vertex 0.00448324 -0.0309994 0.0356844
  endloop
 endfacet

 facet normal 0.139468 -0.560948 0.816018
  outer loop
  vertex 0.0719929 -0.0202048 0.0315665
  vertex 0.00448324 -0.0309994 0.0356844
  vertex 0.0719929 -0.0224995 0.0299891
  endloop
 endfacet

 facet normal 0.132933 -0.50634 0.852026
  outer loop
  vertex 0.0719929 -0.0202048 0.0315665
  vertex 0.0719929 -0.017811 0.0329891
  vertex 0.00448324 -0.0309994 0.0356844
  endloop
 endfacet

 facet normal -0.959205 -0.191828 -0.20767
  outer loop
  vertex -0.0357717 -0.0309994 -0.00389731
  vertex -0.0374699 -0.0124619 -0.013177
  vertex -0.0342641 -0.0309994 -0.0108607
  endloop
 endfacet

 facet normal -0.0217081 -0.999753 -0.00469985
  outer loop
  vertex -0.0357717 -0.0309994 -0.00389731
  vertex -0.0342641 -0.0309994 -0.0108607
  vertex 0.0554931 -0.0329993 -1.03712e-05
  endloop
 endfacet

 facet normal -0.0218524 -0.99976 -0.00131564
  outer loop
  vertex 0.0554931 -0.0329993 -1.03712e-05
  vertex -0.0360057 -0.0309994 -1.04904e-05
  vertex -0.0357717 -0.0309994 -0.00389731
  endloop
 endfacet

 facet normal -0.0218524 -0.999761 0.00114949
  outer loop
  vertex -0.0357847 -0.0309994 0.00418202
  vertex -0.0360057 -0.0309994 -1.04904e-05
  vertex 0.0554931 -0.0329993 -1.03712e-05
  endloop
 endfacet

 facet normal -0.994277 -0.0884906 -0.0598609
  outer loop
  vertex -0.0375156 -0.0140345 -1.04904e-05
  vertex -0.0357717 -0.0309994 -0.00389731
  vertex -0.0360057 -0.0309994 -1.04904e-05
  endloop
 endfacet

 facet normal -0.994692 -0.0885276 0.0524442
  outer loop
  vertex -0.0357847 -0.0309994 0.00418202
  vertex -0.0375156 -0.0140345 -1.04904e-05
  vertex -0.0360057 -0.0309994 -1.04904e-05
  endloop
 endfacet

 facet normal -0.995066 -0.0984172 0.0125804
  outer loop
  vertex -0.037493 -0.0125802 0.0131514
  vertex -0.0375156 -0.0140345 -1.04904e-05
  vertex -0.0357847 -0.0309994 0.00418202
  endloop
 endfacet

 facet normal -0.960587 -0.188556 0.204251
  outer loop
  vertex -0.037493 -0.0125802 0.0131514
  vertex -0.0357847 -0.0309994 0.00418202
  vertex -0.0346336 -0.0309994 0.00959553
  endloop
 endfacet

 facet normal -0.788747 -0.0942285 -0.607453
  outer loop
  vertex -0.0278535 -0.0309994 -0.0227878
  vertex -0.0374699 -0.0124619 -0.013177
  vertex -0.0380055 -1.82257e-05 -0.0144118
  endloop
 endfacet

 facet normal -0.0202275 -0.999701 -0.0137616
  outer loop
  vertex 0.0554931 -0.0329993 -1.03712e-05
  vertex -0.0311336 -0.0309994 -0.0179664
  vertex -0.0278535 -0.0309994 -0.0227878
  endloop
 endfacet

 facet normal -0.819121 -0.136005 -0.557265
  outer loop
  vertex -0.0278535 -0.0309994 -0.0227878
  vertex -0.0311336 -0.0309994 -0.0179664
  vertex -0.0374699 -0.0124619 -0.013177
  endloop
 endfacet

 facet normal -0.0204266 0.999706 0.0130477
  outer loop
  vertex -0.031955 0.0309998 0.0163254
  vertex -0.0278 0.0309998 0.022832
  vertex 0.0554931 0.0329998 -1.06096e-05
  endloop
 endfacet

 facet normal -0.95141 0.190536 0.2419
  outer loop
  vertex -0.0348041 0.0309998 0.00912124
  vertex -0.0375458 0.0126681 0.0127771
  vertex -0.037506 0.0122376 0.0132732
  endloop
 endfacet

 facet normal -0.99167 0.0465065 0.120118
  outer loop
  vertex -0.0375458 0.0126681 0.0127771
  vertex -0.0379582 2.04773e-07 0.0142778
  vertex -0.037506 0.0122376 0.0132732
  endloop
 endfacet

 facet normal -0.909086 0.210473 0.359532
  outer loop
  vertex -0.0348041 0.0309998 0.00912124
  vertex -0.037506 0.0122376 0.0132732
  vertex -0.031955 0.0309998 0.0163254
  endloop
 endfacet

 facet normal -0.670816 0.0373717 0.740682
  outer loop
  vertex -0.0260048 2.09199e-07 0.026431
  vertex -0.0237514 2.10022e-07 0.0284718
  vertex -0.0222516 0.0309998 0.0282661
  endloop
 endfacet

 facet normal -0.586068 -0.0338401 0.809555
  outer loop
  vertex -0.0200603 2.11342e-07 0.031144
  vertex -0.0237514 2.10022e-07 0.0284718
  vertex -0.0223916 -0.0309993 0.0281604
  endloop
 endfacet

 facet normal -0.670829 -0.0368665 0.740696
  outer loop
  vertex -0.0223916 -0.0309993 0.0281604
  vertex -0.0237514 2.10022e-07 0.0284718
  vertex -0.0260048 2.09199e-07 0.026431
  endloop
 endfacet

 facet normal -0.0217331 0.999755 -0.00421115
  outer loop
  vertex -0.0346834 0.0309998 -0.00943622
  vertex -0.0357902 0.0309998 -0.00372389
  vertex 0.0554931 0.0329998 -1.06096e-05
  endloop
 endfacet

 facet normal -0.973327 0.130632 -0.188598
  outer loop
  vertex -0.0346834 0.0309998 -0.00943622
  vertex -0.0375325 0.0134263 -0.00690424
  vertex -0.0357902 0.0309998 -0.00372389
  endloop
 endfacet

 facet normal -0.0213368 0.99974 -0.00799976
  outer loop
  vertex -0.0321876 0.0309998 -0.0160928
  vertex -0.0346834 0.0309998 -0.00943622
  vertex 0.0554931 0.0329998 -1.06096e-05
  endloop
 endfacet

 facet normal -0.156127 0.0360692 0.987078
  outer loop
  vertex -0.00232518 0.0309989 0.035967
  vertex -0.00814458 0.0309996 0.0350465
  vertex -0.00568692 -0.000243823 0.0365769
  endloop
 endfacet

 facet normal 0.0476189 0.0253172 0.998545
  outer loop
  vertex 0.0759929 0.0157922 0.0329891
  vertex 0.00123981 0.00986623 0.0367042
  vertex 0.00228283 -0.0015391 0.0369436
  endloop
 endfacet

 facet normal -0.00549308 0.0339366 0.999409
  outer loop
  vertex -0.00232518 0.0309989 0.035967
  vertex 0.00123981 0.00986623 0.0367042
  vertex 0.000640988 0.0309998 0.0359833
  endloop
 endfacet

 facet normal 0.0468079 0.03538 0.998277
  outer loop
  vertex 0.000640988 0.0309998 0.0359833
  vertex 0.00123981 0.00986623 0.0367042
  vertex 0.0759929 0.0157922 0.0329891
  endloop
 endfacet

 facet normal -0.0428301 -0.0353104 0.998458
  outer loop
  vertex 0.000600934 -0.0309994 0.0359839
  vertex 3.27826e-06 -0.00189495 0.0369876
  vertex -0.00337847 -0.0309992 0.0358132
  endloop
 endfacet

 facet normal -0.837784 -0.157428 0.522813
  outer loop
  vertex -0.0286208 -0.0309991 0.0218225
  vertex -0.037493 -0.0125802 0.0131514
  vertex -0.0320963 -0.0309994 0.0162531
  endloop
 endfacet

 facet normal -0.863632 -0.0765467 0.498277
  outer loop
  vertex -0.0379582 2.04773e-07 0.0142778
  vertex -0.037493 -0.0125802 0.0131514
  vertex -0.0377357 2.04862e-07 0.0146634
  endloop
 endfacet

 facet normal -0.784443 -0.0889022 0.613796
  outer loop
  vertex -0.0286208 -0.0309991 0.0218225
  vertex -0.0377357 2.04862e-07 0.0146634
  vertex -0.037493 -0.0125802 0.0131514
  endloop
 endfacet

 facet normal -0.303018 -0.0321418 0.952443
  outer loop
  vertex -0.00840548 -0.0309994 0.0349724
  vertex -0.0139842 2.13457e-07 0.0342436
  vertex -0.0133521 -0.0309994 0.0333986
  endloop
 endfacet

 facet normal 0.0161959 0.995615 0.0921293
  outer loop
  vertex 0.00834104 0.0309998 0.0350079
  vertex 0.0759929 0.0328827 0.00276703
  vertex 0.00451444 0.0309998 0.0356806
  endloop
 endfacet

 facet normal 0.00537044 0.997621 0.0687344
  outer loop
  vertex 0.00451444 0.0309998 0.0356806
  vertex 0.0759929 0.0328827 0.00276703
  vertex 0.000640988 0.0309998 0.0359833
  endloop
 endfacet

 facet normal 0.0506412 0.986823 0.153672
  outer loop
  vertex 0.0759929 0.0328827 0.00276703
  vertex 0.0364933 0.0309998 0.0278749
  vertex 0.0759929 0.0322416 0.00688395
  endloop
 endfacet

 facet normal 0.0313354 0.991828 0.123676
  outer loop
  vertex 0.0759929 0.0328827 0.00276703
  vertex 0.00834104 0.0309998 0.0350079
  vertex 0.0364933 0.0309998 0.0278749
  endloop
 endfacet

 facet normal 0.152173 0.784936 0.600598
  outer loop
  vertex 0.0719929 0.0225 0.0299891
  vertex 0.0364933 0.0309998 0.0278749
  vertex 0.00834104 0.0309998 0.0350079
  endloop
 endfacet

 facet normal 0.18273 0.874783 0.448737
  outer loop
  vertex 0.0759929 0.0294925 0.0147289
  vertex 0.0364933 0.0309998 0.0278749
  vertex 0.0719929 0.0225 0.0299891
  endloop
 endfacet

 facet normal 0.163 0.52023 -0.838327
  outer loop
  vertex 0.00441465 0.0309998 -0.0379655
  vertex 0.0719858 0.0224216 -0.0301506
  vertex 0.0719929 0.0178115 -0.0330101
  endloop
 endfacet

 facet normal 0.103845 0.169416 -0.980058
  outer loop
  vertex 0.003995 0.0309998 -0.03801
  vertex 0.00441465 0.0309998 -0.0379655
  vertex 0.0759929 0.0157922 -0.0330101
  endloop
 endfacet

 facet normal 0.115544 0.228874 -0.966574
  outer loop
  vertex 0.00441465 0.0309998 -0.0379655
  vertex 0.0719929 0.0178115 -0.0330101
  vertex 0.0759929 0.0157922 -0.0330101
  endloop
 endfacet

 facet normal 0.166904 0.83032 -0.531706
  outer loop
  vertex 0.0364933 0.0309998 -0.0278959
  vertex 0.0719858 0.0224216 -0.0301506
  vertex 0.00441465 0.0309998 -0.0379655
  endloop
 endfacet

 facet normal 0.00721343 0.997654 -0.0680779
  outer loop
  vertex 0.00441465 0.0309998 -0.0379655
  vertex 0.003995 0.0309998 -0.03801
  vertex 0.0759929 0.0328827 -0.00278801
  endloop
 endfacet

 facet normal 0.0956741 0.967178 -0.235399
  outer loop
  vertex 0.0759929 0.0325323 -0.00554568
  vertex 0.0759929 0.0315469 -0.00959411
  vertex 0.0364933 0.0309998 -0.0278959
  endloop
 endfacet

 facet normal 0.035838 0.991384 -0.125987
  outer loop
  vertex 0.00441465 0.0309998 -0.0379655
  vertex 0.0759929 0.0328827 -0.00278801
  vertex 0.0759929 0.0325323 -0.00554568
  endloop
 endfacet

 facet normal 0.0477215 0.987224 -0.152027
  outer loop
  vertex 0.00441465 0.0309998 -0.0379655
  vertex 0.0759929 0.0325323 -0.00554568
  vertex 0.0364933 0.0309998 -0.0278959
  endloop
 endfacet

 facet normal -0.600485 -0.0360957 -0.798821
  outer loop
  vertex -0.0218932 2.08076e-07 -0.029914
  vertex -0.0202238 -0.0309994 -0.0297681
  vertex -0.0233255 -0.0309994 -0.0274365
  endloop
 endfacet

 facet normal -0.0171896 0.999577 -0.0234526
  outer loop
  vertex -0.0196239 0.0309996 -0.0302048
  vertex -0.0224964 0.0309998 -0.0280904
  vertex 0.0554931 0.0329998 -1.06096e-05
  endloop
 endfacet

 facet normal -0.659706 0.0341627 -0.750747
  outer loop
  vertex -0.0253821 0.0309996 -0.0255546
  vertex -0.0224964 0.0309998 -0.0280904
  vertex -0.0259998 2.0689e-07 -0.0264225
  endloop
 endfacet

 facet normal -0.756477 0.074442 -0.64977
  outer loop
  vertex -0.0283623 0.0309998 -0.022085
  vertex -0.0253821 0.0309996 -0.0255546
  vertex -0.0380055 -1.82257e-05 -0.0144118
  endloop
 endfacet

 facet normal -0.0194329 0.999671 -0.0167518
  outer loop
  vertex 0.0554931 0.0329998 -1.06096e-05
  vertex -0.0253821 0.0309996 -0.0255546
  vertex -0.0283623 0.0309998 -0.022085
  endloop
 endfacet

 facet normal -0.0182055 0.999621 -0.0206342
  outer loop
  vertex -0.0224964 0.0309998 -0.0280904
  vertex -0.0253821 0.0309996 -0.0255546
  vertex 0.0554931 0.0329998 -1.06096e-05
  endloop
 endfacet

 facet normal 0.11439 -0.399675 -0.909492
  outer loop
  vertex 0.0719929 -0.017811 -0.0330101
  vertex 0.00577179 -0.0309994 -0.0355433
  vertex 0.00319469 -0.0309994 -0.0358675
  endloop
 endfacet

 facet normal 0.133426 -0.506306 -0.851969
  outer loop
  vertex 0.0719929 -0.0202048 -0.0315875
  vertex 0.00577179 -0.0309994 -0.0355433
  vertex 0.0719929 -0.017811 -0.0330101
  endloop
 endfacet

 facet normal 0.00986783 -0.996869 -0.0784573
  outer loop
  vertex 0.00319469 -0.0309994 -0.0358675
  vertex 0.00577179 -0.0309994 -0.0355433
  vertex 0.0759929 -0.0328822 -0.00278801
  endloop
 endfacet

 facet normal 0.0200037 -0.99478 -0.100067
  outer loop
  vertex 0.00831881 -0.0309994 -0.0350342
  vertex 0.0759929 -0.0328822 -0.00278801
  vertex 0.00577179 -0.0309994 -0.0355433
  endloop
 endfacet

 facet normal 0.146513 -0.664329 -0.73294
  outer loop
  vertex 0.00831881 -0.0309994 -0.0350342
  vertex 0.00577179 -0.0309994 -0.0355433
  vertex 0.0719929 -0.0224995 -0.0300101
  endloop
 endfacet

 facet normal 0.0328296 -0.991487 -0.126
  outer loop
  vertex 0.0364933 -0.0309994 -0.0278959
  vertex 0.0759929 -0.0325318 -0.00554568
  vertex 0.0759929 -0.0328822 -0.00278801
  endloop
 endfacet

 facet normal 0.0956752 -0.967178 -0.2354
  outer loop
  vertex 0.0759929 -0.0315465 -0.00959411
  vertex 0.0759929 -0.0325318 -0.00554568
  vertex 0.0364933 -0.0309994 -0.0278959
  endloop
 endfacet

 facet normal -0.99931 -0.0370981 0.00167254
  outer loop
  vertex -0.0379582 2.04773e-07 0.0142778
  vertex -0.0380055 -1.82257e-05 -0.0144118
  vertex -0.037493 -0.0125802 0.0131514
  endloop
 endfacet

 facet normal -0.58607 0.0337288 0.809558
  outer loop
  vertex -0.0237514 2.10022e-07 0.0284718
  vertex -0.0200603 2.11342e-07 0.031144
  vertex -0.0222516 0.0309998 0.0282661
  endloop
 endfacet

 facet normal -0.436404 0.0332746 0.899135
  outer loop
  vertex -0.0134303 0.0309997 0.0333653
  vertex -0.0179469 0.0309998 0.0311731
  vertex -0.0139842 2.13457e-07 0.0342436
  endloop
 endfacet

 facet normal -0.454221 0.0301297 0.890379
  outer loop
  vertex -0.0200603 2.11342e-07 0.031144
  vertex -0.0139842 2.13457e-07 0.0342436
  vertex -0.0179469 0.0309998 0.0311731
  endloop
 endfacet

 facet normal -0.435803 -0.0334042 0.899422
  outer loop
  vertex -0.0133521 -0.0309994 0.0333986
  vertex -0.0139842 2.13457e-07 0.0342436
  vertex -0.0179563 -0.0309993 0.0311677
  endloop
 endfacet

 facet normal -0.915828 0.208221 -0.343369
  outer loop
  vertex -0.0321876 0.0309998 -0.0160928
  vertex -0.0374352 0.0124183 -0.0133644
  vertex -0.0346834 0.0309998 -0.00943622
  endloop
 endfacet

 facet normal -0.987233 0.154445 -0.0389695
  outer loop
  vertex -0.0346834 0.0309998 -0.00943622
  vertex -0.0374352 0.0124183 -0.0133644
  vertex -0.0375325 0.0134263 -0.00690424
  endloop
 endfacet

 facet normal -0.0204131 0.999707 -0.0130315
  outer loop
  vertex 0.0554931 0.0329998 -1.06096e-05
  vertex -0.0283623 0.0309998 -0.022085
  vertex -0.0321876 0.0309998 -0.0160928
  endloop
 endfacet

 facet normal -0.0393567 0.0282037 0.998827
  outer loop
  vertex -0.00232518 0.0309989 0.035967
  vertex 3.27826e-06 -0.00189495 0.0369876
  vertex 0.00123981 0.00986623 0.0367042
  endloop
 endfacet

 facet normal 0.0157691 0.0224272 0.999624
  outer loop
  vertex 0.00123981 0.00986623 0.0367042
  vertex 3.27826e-06 -0.00189495 0.0369876
  vertex 0.00228283 -0.0015391 0.0369436
  endloop
 endfacet

 facet normal 0.0245599 -0.0339494 0.999122
  outer loop
  vertex 0.000600934 -0.0309994 0.0359839
  vertex 0.00228283 -0.0015391 0.0369436
  vertex 3.27826e-06 -0.00189495 0.0369876
  endloop
 endfacet

 facet normal -0.0643317 0.0263971 0.997579
  outer loop
  vertex -0.00232518 0.0309989 0.035967
  vertex -0.00568692 -0.000243823 0.0365769
  vertex 3.27826e-06 -0.00189495 0.0369876
  endloop
 endfacet

 facet normal -0.0808343 -0.0308055 0.996251
  outer loop
  vertex -0.00568692 -0.000243823 0.0365769
  vertex -0.00337847 -0.0309992 0.0358132
  vertex 3.27826e-06 -0.00189495 0.0369876
  endloop
 endfacet

 facet normal -0.269913 0.0259165 0.962536
  outer loop
  vertex -0.00814458 0.0309996 0.0350465
  vertex -0.0139842 2.13457e-07 0.0342436
  vertex -0.00568692 -0.000243823 0.0365769
  endloop
 endfacet

 facet normal -0.271331 -0.0262118 0.962129
  outer loop
  vertex -0.00840548 -0.0309994 0.0349724
  vertex -0.00568692 -0.000243823 0.0365769
  vertex -0.0139842 2.13457e-07 0.0342436
  endloop
 endfacet

 facet normal -0.164863 -0.0368487 0.985628
  outer loop
  vertex -0.00337847 -0.0309992 0.0358132
  vertex -0.00568692 -0.000243823 0.0365769
  vertex -0.00840548 -0.0309994 0.0349724
  endloop
 endfacet

 facet normal 0.156691 0.917487 -0.365603
  outer loop
  vertex 0.0759929 0.0315469 -0.00959411
  vertex 0.0759929 0.0294925 -0.0147499
  vertex 0.0364933 0.0309998 -0.0278959
  endloop
 endfacet

 facet normal -0.592431 0.0358177 -0.804825
  outer loop
  vertex -0.0224964 0.0309998 -0.0280904
  vertex -0.0196239 0.0309996 -0.0302048
  vertex -0.0218932 2.08076e-07 -0.029914
  endloop
 endfacet

 facet normal 0.140171 -0.560892 -0.815936
  outer loop
  vertex 0.00577179 -0.0309994 -0.0355433
  vertex 0.0719929 -0.0202048 -0.0315875
  vertex 0.0719929 -0.0224995 -0.0300101
  endloop
 endfacet

 facet normal 0.31502 -0.537643 -0.782114
  outer loop
  vertex 0.0719929 -0.0224995 -0.0300101
  vertex 0.0719929 -0.0202048 -0.0315875
  vertex 0.0759929 -0.0157917 -0.0330101
  endloop
 endfacet

 facet normal -0.454221 -0.0301468 0.890379
  outer loop
  vertex -0.0200603 2.11342e-07 0.031144
  vertex -0.0179563 -0.0309993 0.0311677
  vertex -0.0139842 2.13457e-07 0.0342436
  endloop
 endfacet

 facet normal -0.832426 0.157056 -0.531413
  outer loop
  vertex -0.0283623 0.0309998 -0.022085
  vertex -0.0374352 0.0124183 -0.0133644
  vertex -0.0321876 0.0309998 -0.0160928
  endloop
 endfacet

 facet normal -0.778111 0.0880565 -0.621924
  outer loop
  vertex -0.0380055 -1.82257e-05 -0.0144118
  vertex -0.0374352 0.0124183 -0.0133644
  vertex -0.0283623 0.0309998 -0.022085
  endloop
 endfacet

 facet normal 0.164596 0.90568 0.390708
  outer loop
  vertex 0.0364933 0.0309998 0.0278749
  vertex 0.0759929 0.0294925 0.0147289
  vertex 0.0759929 0.0311429 0.0109031
  endloop
 endfacet

 facet normal 0.109153 0.958842 0.26212
  outer loop
  vertex 0.0759929 0.0322416 0.00688395
  vertex 0.0364933 0.0309998 0.0278749
  vertex 0.0759929 0.0311429 0.0109031
  endloop
 endfacet

 facet normal -2.72677e-07 0.999113 -0.0421188
  outer loop
  vertex 0.0759929 0.0328827 -0.00278801
  vertex 0.0623431 0.0328827 -0.00278801
  vertex 0.0759929 0.0329998 -1.04904e-05
  endloop
 endfacet

 facet normal -0.00735239 0.999955 -0.00602315
  outer loop
  vertex 0.0759929 0.0329998 -1.04904e-05
  vertex 0.0623431 0.0328827 -0.00278801
  vertex 0.0623431 0.032912 0.00207253
  endloop
 endfacet

 facet normal -2.7253e-07 0.998572 -0.0534151
  outer loop
  vertex 0.0623431 0.0328827 -0.00278801
  vertex 0.0759929 0.0328827 -0.00278801
  vertex -0.00316537 0.0309998 -0.0379878
  endloop
 endfacet

 facet normal -0.000165085 0.998592 -0.0530456
  outer loop
  vertex 0.003995 0.0309998 -0.03801
  vertex -0.00316537 0.0309998 -0.0379878
  vertex 0.0759929 0.0328827 -0.00278801
  endloop
 endfacet

 facet normal -2.996e-07 0.999113 0.0421188
  outer loop
  vertex 0.0759929 0.0328827 0.00276703
  vertex 0.0759929 0.0329998 -1.04904e-05
  vertex 0.0623431 0.032912 0.00207253
  endloop
 endfacet

 facet normal -0.000662048 0.998481 0.0550983
  outer loop
  vertex 0.0623431 0.032912 0.00207253
  vertex 0.000640988 0.0309998 0.0359833
  vertex 0.0759929 0.0328827 0.00276703
  endloop
 endfacet

 facet normal 1 0 0
  outer loop
  vertex 0.0759929 -0.0157917 0.0329891
  vertex 0.0759929 0.0311429 0.0109031
  vertex 0.0759929 0.0157922 0.0329891
  endloop
 endfacet

 facet normal 1 0 0
  outer loop
  vertex 0.0759929 -0.0157917 -0.0330101
  vertex 0.0759929 0.0311429 0.0109031
  vertex 0.0759929 -0.0233088 -0.025112
  endloop
 endfacet

 facet normal 1 0 0
  outer loop
  vertex 0.0759929 0.0325323 -0.00554568
  vertex 0.0759929 0.0311429 0.0109031
  vertex 0.0759929 0.0315469 -0.00959411
  endloop
 endfacet

 facet normal 1 0 0
  outer loop
  vertex 0.0759929 0.0328827 -0.00278801
  vertex 0.0759929 0.0329998 -1.04904e-05
  vertex 0.0759929 0.0311429 0.0109031
  endloop
 endfacet

 facet normal 1 0 0
  outer loop
  vertex 0.0759929 0.0157922 -0.0330101
  vertex 0.0759929 0.0311429 0.0109031
  vertex 0.0759929 -0.0157917 -0.0330101
  endloop
 endfacet

 facet normal 1 0 0
  outer loop
  vertex 0.0759929 -0.0329993 -1.04904e-05
  vertex 0.0759929 -0.0328822 -0.00278801
  vertex 0.0759929 0.0311429 0.0109031
  endloop
 endfacet

 facet normal 1 0 0
  outer loop
  vertex 0.0759929 -0.0325318 -0.00554568
  vertex 0.0759929 -0.0315465 -0.00959411
  vertex 0.0759929 0.0311429 0.0109031
  endloop
 endfacet

 facet normal 1 0 0
  outer loop
  vertex 0.0759929 -0.0233088 0.025091
  vertex 0.0759929 -0.029492 0.0147289
  vertex 0.0759929 0.0311429 0.0109031
  endloop
 endfacet

 facet normal 1 0 0
  outer loop
  vertex 0.0759929 0.0233093 0.025091
  vertex 0.0759929 0.0311429 0.0109031
  vertex 0.0759929 0.0294925 0.0147289
  endloop
 endfacet

 facet normal 1 0 0
  outer loop
  vertex 0.0759929 -0.029492 -0.0147499
  vertex 0.0759929 -0.0233088 -0.025112
  vertex 0.0759929 0.0311429 0.0109031
  endloop
 endfacet

 facet normal 1 0 0
  outer loop
  vertex 0.0759929 -0.0233088 0.025091
  vertex 0.0759929 0.0311429 0.0109031
  vertex 0.0759929 -0.0157917 0.0329891
  endloop
 endfacet

 facet normal 1 0 0
  outer loop
  vertex 0.0759929 0.0233093 0.025091
  vertex 0.0759929 0.0157922 0.0329891
  vertex 0.0759929 0.0311429 0.0109031
  endloop
 endfacet

 facet normal 1 0 0
  outer loop
  vertex 0.0759929 -0.0329993 -1.04904e-05
  vertex 0.0759929 0.0311429 0.0109031
  vertex 0.0759929 -0.0328822 0.00276703
  endloop
 endfacet

 facet normal 1 0 0
  outer loop
  vertex 0.0759929 0.0233093 -0.025112
  vertex 0.0759929 0.0294925 -0.0147499
  vertex 0.0759929 0.0311429 0.0109031
  endloop
 endfacet

 facet normal 1 0 0
  outer loop
  vertex 0.0759929 0.0233093 -0.025112
  vertex 0.0759929 0.0311429 0.0109031
  vertex 0.0759929 0.0157922 -0.0330101
  endloop
 endfacet

 facet normal 1 0 0
  outer loop
  vertex 0.0759929 -0.0322411 0.00688395
  vertex 0.0759929 -0.0328822 0.00276703
  vertex 0.0759929 0.0311429 0.0109031
  endloop
 endfacet

 facet normal 1 0 0
  outer loop
  vertex 0.0759929 -0.0311424 0.0109031
  vertex 0.0759929 0.0311429 0.0109031
  vertex 0.0759929 -0.029492 0.0147289
  endloop
 endfacet

 facet normal 1 0 0
  outer loop
  vertex 0.0759929 0.0328827 0.00276703
  vertex 0.0759929 0.0322416 0.00688395
  vertex 0.0759929 0.0311429 0.0109031
  endloop
 endfacet

 facet normal 1 0 0
  outer loop
  vertex 0.0759929 -0.029492 -0.0147499
  vertex 0.0759929 0.0311429 0.0109031
  vertex 0.0759929 -0.0315465 -0.00959411
  endloop
 endfacet

 facet normal 1 0 0
  outer loop
  vertex 0.0759929 -0.0311424 0.0109031
  vertex 0.0759929 -0.0322411 0.00688395
  vertex 0.0759929 0.0311429 0.0109031
  endloop
 endfacet

 facet normal 1 0 0
  outer loop
  vertex 0.0759929 0.0328827 0.00276703
  vertex 0.0759929 0.0311429 0.0109031
  vertex 0.0759929 0.0329998 -1.04904e-05
  endloop
 endfacet

 facet normal 1 0 0
  outer loop
  vertex 0.0759929 0.0325323 -0.00554568
  vertex 0.0759929 0.0328827 -0.00278801
  vertex 0.0759929 0.0311429 0.0109031
  endloop
 endfacet

 facet normal 1 0 0
  outer loop
  vertex 0.0759929 -0.0325318 -0.00554568
  vertex 0.0759929 0.0311429 0.0109031
  vertex 0.0759929 -0.0328822 -0.00278801
  endloop
 endfacet

 facet normal 1 0 0
  outer loop
  vertex 0.0759929 0.0315469 -0.00959411
  vertex 0.0759929 0.0311429 0.0109031
  vertex 0.0759929 0.0294925 -0.0147499
  endloop
 endfacet

endsolid AssimpScene
